<?xml version="1.0" encoding="UTF-8" standalone="no"?>
<svg
   xmlns:osb="http://www.openswatchbook.org/uri/2009/osb"
   xmlns:dc="http://purl.org/dc/elements/1.1/"
   xmlns:cc="http://creativecommons.org/ns#"
   xmlns:rdf="http://www.w3.org/1999/02/22-rdf-syntax-ns#"
   xmlns:svg="http://www.w3.org/2000/svg"
   xmlns="http://www.w3.org/2000/svg"
   xmlns:xlink="http://www.w3.org/1999/xlink"
   xmlns:sodipodi="http://sodipodi.sourceforge.net/DTD/sodipodi-0.dtd"
   xmlns:inkscape="http://www.inkscape.org/namespaces/inkscape"
   width="210mm"
   height="297mm"
   viewBox="0 0 210 297"
   version="1.1"
   id="svg8"
   sodipodi:docname="pickupcar.svg"
   inkscape:version="1.0 (4035a4fb49, 2020-05-01)"
   inkscape:export-filename="/home/archemich/Work/Projects/Try-to-drive/game/models/cars/car.png"
   inkscape:export-xdpi="96"
   inkscape:export-ydpi="96">
  <defs
     id="defs2">
    <linearGradient
       inkscape:collect="always"
       id="linearGradient4598">
      <stop
         style="stop-color:#c4bbb4;stop-opacity:1;"
         offset="0"
         id="stop4594" />
      <stop
         style="stop-color:#c4bbb4;stop-opacity:0;"
         offset="1"
         id="stop4596" />
    </linearGradient>
    <linearGradient
       id="linearGradient3934"
       osb:paint="solid">
      <stop
         style="stop-color:#ac9d93;stop-opacity:1;"
         offset="0"
         id="stop3932" />
    </linearGradient>
    <inkscape:path-effect
       effect="bspline"
       id="path-effect1948"
       is_visible="true"
       lpeversion="1"
       weight="33.333333"
       steps="2"
       helper_size="0"
       apply_no_weight="true"
       apply_with_weight="true"
       only_selected="false" />
    <inkscape:path-effect
       only_selected="false"
       apply_with_weight="true"
       apply_no_weight="true"
       helper_size="0"
       steps="2"
       weight="33.333333"
       lpeversion="1"
       is_visible="true"
       id="path-effect1944"
       effect="bspline" />
    <inkscape:path-effect
       effect="bspline"
       id="path-effect1940"
       is_visible="true"
       lpeversion="1"
       weight="33.333333"
       steps="2"
       helper_size="0"
       apply_no_weight="true"
       apply_with_weight="true"
       only_selected="false" />
    <inkscape:path-effect
       only_selected="false"
       apply_with_weight="true"
       apply_no_weight="true"
       helper_size="0"
       steps="2"
       weight="33.333333"
       lpeversion="1"
       is_visible="true"
       id="path-effect1936"
       effect="bspline" />
    <inkscape:path-effect
       effect="bspline"
       id="path-effect1932"
       is_visible="true"
       lpeversion="1"
       weight="33.333333"
       steps="2"
       helper_size="0"
       apply_no_weight="true"
       apply_with_weight="true"
       only_selected="false" />
    <inkscape:path-effect
       only_selected="false"
       apply_with_weight="true"
       apply_no_weight="true"
       helper_size="0"
       steps="2"
       weight="33.333333"
       lpeversion="1"
       is_visible="true"
       id="path-effect1928"
       effect="bspline" />
    <inkscape:path-effect
       effect="bspline"
       id="path-effect1920"
       is_visible="true"
       lpeversion="1"
       weight="33.333333"
       steps="2"
       helper_size="0"
       apply_no_weight="true"
       apply_with_weight="true"
       only_selected="false" />
    <inkscape:path-effect
       only_selected="false"
       apply_with_weight="true"
       apply_no_weight="true"
       helper_size="0"
       steps="2"
       weight="33.333333"
       lpeversion="1"
       is_visible="true"
       id="path-effect1916"
       effect="bspline" />
    <inkscape:path-effect
       effect="bspline"
       id="path-effect1912"
       is_visible="true"
       lpeversion="1"
       weight="33.333333"
       steps="2"
       helper_size="0"
       apply_no_weight="true"
       apply_with_weight="true"
       only_selected="false" />
    <inkscape:path-effect
       only_selected="false"
       apply_with_weight="true"
       apply_no_weight="true"
       helper_size="0"
       steps="2"
       weight="33.333333"
       lpeversion="1"
       is_visible="true"
       id="path-effect1908"
       effect="bspline" />
    <inkscape:path-effect
       effect="bspline"
       id="path-effect1904"
       is_visible="true"
       lpeversion="1"
       weight="33.333333"
       steps="2"
       helper_size="0"
       apply_no_weight="true"
       apply_with_weight="true"
       only_selected="false" />
    <inkscape:perspective
       sodipodi:type="inkscape:persp3d"
       inkscape:vp_x="0 : 148.5 : 1"
       inkscape:vp_y="0 : 1000 : 0"
       inkscape:vp_z="210 : 148.5 : 1"
       inkscape:persp3d-origin="105 : 99 : 1"
       id="perspective555" />
    <inkscape:path-effect
       effect="mirror_symmetry"
       start_point="97.14,71.56"
       end_point="97.84,78.577239"
       center_point="93.544331,74.9691"
       id="path-effect537"
       is_visible="true"
       lpeversion="1"
       mode="free"
       discard_orig_path="false"
       fuse_paths="false"
       oposite_fuse="false"
       split_items="false" />
    <inkscape:path-effect
       effect="mirror_symmetry"
       start_point="126.70816,28.220879"
       end_point="126.70816,95.658342"
       center_point="126.70816,61.939611"
       id="path-effect523"
       is_visible="true"
       lpeversion="1"
       mode="free"
       discard_orig_path="false"
       fuse_paths="false"
       oposite_fuse="false"
       split_items="false" />
    <radialGradient
       inkscape:collect="always"
       xlink:href="#linearGradient4598"
       id="radialGradient4600"
       cx="100.09244"
       cy="143.49701"
       fx="100.09244"
       fy="143.49701"
       r="17.773422"
       gradientTransform="matrix(0.97894737,0.0631579,-0.05896062,0.91388957,12.438769,-1.074408)"
       gradientUnits="userSpaceOnUse" />
    <filter
       inkscape:collect="always"
       style="color-interpolation-filters:sRGB"
       id="filter5086"
       x="-0.58770476"
       width="2.1754095"
       y="-0.64174653"
       height="2.2834931">
      <feGaussianBlur
         inkscape:collect="always"
         stdDeviation="8.7046041"
         id="feGaussianBlur5088" />
    </filter>
    <filter
       height="1.0000018"
       y="-9.1194031e-07"
       width="1.0000035"
       x="-1.754067e-06"
       id="filter1000"
       style="color-interpolation-filters:sRGB"
       inkscape:collect="always">
      <feGaussianBlur
         id="feGaussianBlur1002"
         stdDeviation="7.9435327e-05"
         inkscape:collect="always" />
    </filter>
  </defs>
  <sodipodi:namedview
     id="base"
     pagecolor="#ffffff"
     bordercolor="#666666"
     borderopacity="1.0"
     inkscape:pageopacity="0.0"
     inkscape:pageshadow="2"
     inkscape:zoom="2"
     inkscape:cx="475.76251"
     inkscape:cy="879.48384"
     inkscape:document-units="mm"
     inkscape:current-layer="layer1"
     inkscape:document-rotation="0"
     showgrid="false"
     inkscape:snap-bbox="false"
     inkscape:bbox-nodes="true"
     inkscape:bbox-paths="true"
     inkscape:snap-grids="true"
     inkscape:snap-page="true"
     inkscape:snap-others="true"
     inkscape:object-paths="false"
     inkscape:snap-nodes="false"
     inkscape:snap-global="true"
     inkscape:snap-bbox-edge-midpoints="true"
     inkscape:snap-bbox-midpoints="true"
     inkscape:snap-intersection-paths="false"
     inkscape:snap-smooth-nodes="true"
     inkscape:snap-midpoints="true"
     inkscape:snap-object-midpoints="true"
     inkscape:snap-center="true"
     inkscape:snap-text-baseline="false"
     inkscape:object-nodes="true"
     showguides="true"
     inkscape:window-width="1920"
     inkscape:window-height="1026"
     inkscape:window-x="0"
     inkscape:window-y="28"
     inkscape:window-maximized="1">
    <inkscape:grid
       type="xygrid"
       id="grid545" />
  </sodipodi:namedview>
  <metadata
     id="metadata5">
    <rdf:RDF>
      <cc:Work
         rdf:about="">
        <dc:format>image/svg+xml</dc:format>
        <dc:type
           rdf:resource="http://purl.org/dc/dcmitype/StillImage" />
      </cc:Work>
    </rdf:RDF>
  </metadata>
  <g
     style="filter:url(#filter1000)"
     inkscape:label="Layer 1"
     inkscape:groupmode="layer"
     id="layer1">
    <g
       id="g958"
       style="opacity:1" />
    <path
       id="rect966"
       style="mix-blend-mode:normal;fill:#ac9d93;stroke-width:0.317;stroke-miterlimit:4;stroke-dasharray:none;fill-opacity:1;fill-rule:nonzero;opacity:1"
       d="m 72.76042,69.320831 h 51.32917 c 8.35501,0 15.08125,10.680001 15.08125,23.94619 v 80.580829 96.16947 c 0,0 -4.80801,8.35753 -15.08125,8.35753 H 72.76042 c -8.355013,0 -15.081251,-8.35753 -15.081251,-8.35753 V 173.84785 93.267021 c 0,-13.266189 6.726238,-23.94619 15.081251,-23.94619 z"
       sodipodi:nodetypes="sssccssccss" />
    <path
       id="rect969"
       style="fill:#c4c4c4;stroke-width:0.248288;fill-opacity:1"
       d="m 98.744069,95.521888 c 25.623021,-0.0075 35.562461,6.434712 35.562461,7.698372 l -7.04327,24.19174 c 0,0 -5.22937,-5.4291 -28.24645,-5.61832 -23.017078,-0.18922 -29.270472,5.41992 -29.270472,5.41992 l -7.202914,-23.9933 c -0.727012,-2.42172 10.577577,-7.690843 36.200595,-7.698372 z"
       sodipodi:nodetypes="zzczcszz" />
    <ellipse
       ry="4.8387742"
       rx="8.7458878"
       cy="31.757177"
       cx="145.60837"
       id="ellipse1001"
       style="fill:#ececec;stroke-width:0.264583"
       transform="rotate(20.630479)"
       inkscape:transform-center-x="4.8643054"
       inkscape:transform-center-y="3.7538756" />
    <ellipse
       style="fill:#ff6600;stroke-width:0.3715"
       id="path1003"
       cx="-18.921614"
       cy="-99.072075"
       rx="4.7828894"
       ry="1.7711819"
       transform="rotate(147.91747)" />
    <ellipse
       transform="matrix(0.88430628,0.46690728,0.46690728,-0.88430628,0,0)"
       ry="1.7711819"
       rx="4.7828894"
       cy="-5.4832392"
       cx="147.8643"
       id="ellipse1005"
       style="fill:#ff6600;stroke-width:0.3715" />
    <path
       id="rect1830"
       style="fill:#c4c4c4;fill-opacity:1;stroke-width:0.153988"
       d="m 61.40014,115.59819 c -0.06423,-0.70857 7.044636,20.34069 7.009565,21.05098 l -0.04051,33.57345 -7.001283,-2.4398 z"
       sodipodi:nodetypes="ssccs" />
    <path
       sodipodi:nodetypes="zzccszz"
       d="m 98.7096,195.10873 c 22.40645,0.006 25.86287,-5.62693 25.86287,-6.73196 l -0.92382,-14.52893 -50.296573,0.17349 -0.981616,14.3554 c -0.150841,2.20593 3.932643,6.72538 26.339095,6.73197 z"
       style="fill:#c4c4c4;stroke-width:0.217119;fill-opacity:1"
       id="path1833" />
    <path
       sodipodi:nodetypes="ccccc"
       d="m 67.386338,191.76358 1.082076,-18.10597 -7.100502,-2.43408 -0.05847,17.64792 z"
       style="fill:#c4c4c4;fill-opacity:1;stroke-width:0.153988"
       id="path1837" />
    <path
       sodipodi:nodetypes="ssccs"
       d="m 135.37815,115.59819 c 0.0642,-0.70857 -7.04463,20.34069 -7.00956,21.05098 l 0.0405,33.57345 7.00128,-2.4398 z"
       style="fill:#c4c4c4;fill-opacity:1;stroke-width:0.153988"
       id="path1858" />
    <path
       id="path1860"
       style="fill:#c4c4c4;fill-opacity:1;stroke-width:0.153988"
       d="m 129.39195,191.76358 -1.08207,-18.10597 7.1005,-2.43408 0.0585,17.64792 z"
       sodipodi:nodetypes="ccccc" />
    <path
       id="path1862"
       style="fill:#ac9d93;fill-opacity:1;stroke-width:0.264583"
       d="m 57.245365,116.93907 c 0.296902,1.38869 0.286609,1.40991 -6.264637,2.81056 -6.438045,1.37645 -6.508039,1.35572 -6.801531,-0.017 -0.380343,-1.77898 1.645098,-3.86903 5.813958,-4.76033 4.303733,-0.92013 6.850318,0.0871 7.25221,1.9668 z"
       sodipodi:nodetypes="sssss" />
    <path
       id="rect1865"
       style="fill:#ac9d93;fill-opacity:1;stroke-width:0.143328"
       d="m 55.57188,115.53181 c 1.424005,-0.26458 4.421209,-0.1819 5.795647,0 0.231111,0.0306 0.228845,0.74386 0,0.69938 -1.361399,-0.26458 -3.892073,-0.26458 -5.795647,0 -0.230907,0.0321 -0.229204,-0.65679 0,-0.69938 z"
       sodipodi:nodetypes="sssss" />
    <path
       sodipodi:nodetypes="sssss"
       d="m 139.70986,116.93907 c -0.2969,1.38869 -0.2866,1.40991 6.26464,2.81056 6.43805,1.37645 6.50804,1.35572 6.80153,-0.017 0.38035,-1.77898 -1.6451,-3.86903 -5.81396,-4.76033 -4.30373,-0.92013 -6.85031,0.0871 -7.25221,1.9668 z"
       style="fill:#ac9d93;fill-opacity:1;stroke-width:0.264583"
       id="path1870" />
    <path
       sodipodi:nodetypes="sssss"
       d="m 141.38335,115.53181 c -1.42401,-0.26458 -4.42121,-0.1819 -5.79565,0 -0.23111,0.0306 -0.22884,0.74386 0,0.69938 1.3614,-0.26458 3.89208,-0.26458 5.79565,0 0.23091,0.0321 0.2292,-0.65679 0,-0.69938 z"
       style="fill:#ac9d93;fill-opacity:1;stroke-width:0.143328"
       id="path1872" />
    <ellipse
       inkscape:transform-center-y="3.7538788"
       inkscape:transform-center-x="-4.8642984"
       transform="matrix(-0.93587224,0.35233954,0.35233954,0.93587224,0,0)"
       style="fill:#ececec;stroke-width:0.264583"
       id="ellipse1883"
       cx="-38.961491"
       cy="101.24451"
       rx="8.7458878"
       ry="4.8387742" />
    <path
       id="path1895"
       style="fill:#ff0000;fill-opacity:1;stroke-width:0.271006"
       d="m 136.9853,268.01425 c 0.78833,1.03816 -0.42972,3.3337 -3.91467,5.9362 -4.71727,3.52274 -6.01047,3.23647 -6.76942,2.17663 -1.37572,-1.92103 -1.41749,-1.91057 3.91465,-5.9362 5.27927,-3.98576 5.38105,-4.00504 6.76944,-2.17663 z"
       sodipodi:nodetypes="sssss" />
    <path
       sodipodi:nodetypes="sssss"
       d="m 61.00459,268.63544 c -0.672758,1.11655 0.783828,3.26863 4.527148,5.48344 5.06702,2.99795 6.322189,2.57499 6.963417,1.44005 1.162341,-2.05715 1.204991,-2.05121 -4.527147,-5.48342 -5.675307,-3.3982 -5.778575,-3.40649 -6.963418,-1.44007 z"
       style="fill:#ff0000;fill-opacity:1;stroke-width:0.271006"
       id="path1898" />
    <path
       sodipodi:nodetypes="sssccssccss"
       d="m 75.706459,207.97909 h 45.437091 c 7.39594,0 13.35007,3.15477 13.35007,7.07346 v 23.8027 22.90175 c -0.0935,3.60371 -4.25609,7.97438 -13.35007,7.97438 H 75.706459 c -7.395941,0 -13.443617,-4.27057 -13.350073,-7.97438 v -22.90175 -23.8027 c 0,-3.91869 5.954132,-7.07346 13.350073,-7.07346 z"
       style="fill:#9d8b7f;fill-opacity:1;stroke-width:0.162162"
       id="path1900" />
    <ellipse
       style="opacity:1;fill:url(#radialGradient4600);fill-opacity:1;fill-rule:nonzero;stroke-width:0.317;stroke-miterlimit:4;stroke-dasharray:none;filter:url(#filter5086)"
       id="path4576"
       cx="101.96333"
       cy="136.38763"
       rx="17.773422"
       ry="16.276714" />
    <path
       sodipodi:nodetypes="ccccccc"
       d="m 68.976176,208.97343 1.000198,-0.4722 0.999802,-0.27326 v 61.16392 l -1.014228,-0.34578 -0.985772,-0.58971 z"
       style="fill:#333333;stroke-width:0.178049"
       id="rect977" />
    <rect
       style="fill:#333333;stroke-width:0.178049"
       id="rect979"
       width="2"
       height="61.681339"
       x="80.263763"
       y="208.0146" />
    <rect
       y="208.01012"
       x="92.161484"
       height="61.708027"
       width="2"
       id="rect981"
       style="fill:#333333;stroke-width:0.178087" />
    <rect
       style="fill:#333333;stroke-width:0.178087"
       id="rect983"
       width="2"
       height="61.708027"
       x="103.144"
       y="208.01012" />
    <rect
       y="208.05063"
       x="113.51639"
       height="61.652298"
       width="2"
       id="rect985"
       style="fill:#333333;stroke-width:0.178006" />
    <path
       d="m 124.80397,208.31189 c 0.66667,0.23151 1.33334,0.46303 2,0.69454 0,19.89545 0,39.79091 0,59.68636 -0.64492,0.24805 -1.28983,0.49609 -1.93474,0.74414 -0.0218,-20.37501 -0.0435,-40.75003 -0.0652,-61.12504 z"
       style="fill:#333333;stroke-width:0.176065"
       id="rect987" />
  </g>
</svg>
